Coordinates
version=1
nRows=9
nColumns=63
inDegrees=yes

Units are S.I. units (second, meters, Newtons, ...)
If the header above contains a line with 'inDegrees', this indicates whether rotational values are in degrees (yes) or radians (no).

endheader
time	pelvis_tilt	pelvis_list	pelvis_rotation	pelvis_tx	pelvis_ty	pelvis_tz	hip_flexion_r	hip_adduction_r	hip_rotation_r	knee_angle_r	knee_angle_r_beta	ankle_angle_r	subtalar_angle_r	mtp_angle_r	hip_flexion_l	hip_adduction_l	hip_rotation_l	knee_angle_l	knee_angle_l_beta	ankle_angle_l	subtalar_angle_l	mtp_angle_l	L5_S1_Flex_Ext	L5_S1_Lat_Bending	L5_S1_axial_rotation	L4_L5_Flex_Ext	L4_L5_Lat_Bending	L4_L5_axial_rotation	L3_L4_Flex_Ext	L3_L4_Lat_Bending	L3_L4_axial_rotation	L2_L3_Flex_Ext	L2_L3_Lat_Bending	L2_L3_axial_rotation	L1_L2_Flex_Ext	L1_L2_Lat_Bending	L1_L2_axial_rotation	L1_T12_Flex_Ext	L1_T12_Lat_Bending	L1_T12_axial_rotation	Abs_r3	Abs_r2	Abs_r1	Abs_t1	Abs_t2	neck_flexion	neck_bending	neck_rotation	arm_flex_r	arm_add_r	arm_rot_r	elbow_flex_r	pro_sup_r	wrist_flex_r	wrist_dev_r	arm_flex_l	arm_add_l	arm_rot_l	elbow_flex_l	pro_sup_l	wrist_flex_l	wrist_dev_l
1.683333	-0.309974	1.589175	69.868617	0.299755	0.998396	0.394326	1.282506	0.899445	10.529961	13.698675	0.239087	20.228409	-15.306749	0.000000	-0.462521	1.005433	-3.530625	11.426900	0.199437	33.252325	-14.333388	0.000000	-0.071473	-0.278042	-0.649500	-0.132733	-0.369796	-0.690094	-0.117423	-0.676031	-0.690094	-0.081687	-0.676031	-0.568313	-0.066370	-0.566983	-0.527719	-0.040840	-0.430687	-0.487125	-0.510527	-3.145265	-3.612325	0.000000	0.000000	25.175831	2.956436	-15.601068	61.650194	-33.471422	-12.486012	119.017101	83.609463	-3.320126	-0.577667	5.315029	-21.265545	30.446426	110.939890	53.025654	2.223237	14.024803
1.700000	-0.141898	1.834553	70.352715	0.299592	0.999238	0.393081	0.890647	0.979228	10.137428	13.643996	0.238133	20.214400	-15.160528	0.000000	-0.821068	0.896575	-3.110639	11.331702	0.197776	33.423194	-13.899830	0.000000	-0.079966	-0.287432	-0.781148	-0.148506	-0.382285	-0.829970	-0.131377	-0.698863	-0.829970	-0.091394	-0.698863	-0.683504	-0.074257	-0.586132	-0.634683	-0.045693	-0.445232	-0.585861	-0.571192	-3.251490	-4.344511	0.000000	0.000000	24.501857	3.164385	-15.384771	55.639174	-32.746975	-15.057011	121.264307	85.348309	-2.750405	-0.851052	5.665031	-21.531960	28.602195	111.977847	47.961137	1.171634	14.906479
1.716667	0.087206	2.082550	70.936910	0.299394	1.000102	0.391571	0.443440	1.124668	9.678609	13.546039	0.236423	20.232812	-15.004582	0.000000	-1.207259	0.718195	-2.638821	11.255772	0.196450	33.572968	-13.453582	0.000000	-0.085933	-0.291054	-0.945545	-0.159586	-0.387102	-1.004642	-0.141179	-0.707669	-1.004642	-0.098213	-0.707669	-0.827352	-0.079797	-0.593518	-0.768256	-0.049102	-0.450843	-0.709159	-0.613809	-3.292463	-5.258839	0.000000	0.000000	23.717769	3.187813	-15.275234	49.699674	-32.172663	-17.551291	123.323315	86.066129	-1.895631	-0.996496	6.077888	-22.050301	26.455014	112.930711	43.567863	0.027148	15.861278
1.733333	0.417001	2.308037	71.621632	0.299068	1.000907	0.389847	-0.031605	1.382446	9.134166	13.409466	0.234039	20.277749	-14.850271	0.000000	-1.587510	0.424714	-2.104319	11.222762	0.195874	33.716452	-13.027984	0.000000	-0.089782	-0.280316	-1.138180	-0.166734	-0.372820	-1.209316	-0.147502	-0.681560	-1.209316	-0.102611	-0.681560	-0.995908	-0.083371	-0.571620	-0.924771	-0.051301	-0.434210	-0.853635	-0.641301	-3.170991	-6.330216	0.000000	0.000000	22.905121	3.036655	-15.151243	44.000507	-31.883260	-19.974875	125.100618	86.083236	-0.873596	-0.969766	6.597591	-22.766162	24.043265	113.681153	40.218765	-1.164070	16.769445
1.750000	0.818603	2.513773	72.340307	0.298702	1.001618	0.388006	-0.517037	1.728728	8.583865	13.246234	0.231190	20.359650	-14.723175	0.000000	-1.965138	0.042585	-1.584570	11.218627	0.195802	33.832566	-12.624071	0.000000	-0.090986	-0.258805	-1.350185	-0.168971	-0.344211	-1.434571	-0.149481	-0.629258	-1.434571	-0.103988	-0.629258	-1.181411	-0.084490	-0.527755	-1.097025	-0.051990	-0.400889	-1.012638	-0.649906	-2.927653	-7.509321	0.000000	0.000000	22.071244	2.743302	-15.049693	38.689199	-31.927091	-22.281706	126.539244	86.159012	-0.046312	-0.623238	7.201203	-23.717469	21.413335	114.225729	38.436287	-2.543785	17.497325
1.766667	1.296309	2.699398	73.068572	0.298287	1.002201	0.386193	-0.991869	2.169651	8.038997	13.078004	0.228254	20.485550	-14.616304	0.000000	-2.322433	-0.430989	-1.073232	11.260282	0.196529	33.936221	-12.278048	0.000000	-0.092501	-0.225993	-1.578342	-0.171783	-0.300571	-1.676988	-0.151970	-0.549479	-1.676988	-0.105719	-0.549479	-1.381049	-0.085896	-0.460845	-1.282403	-0.052855	-0.350063	-1.183757	-0.660724	-2.556477	-8.778265	0.000000	0.000000	21.270877	2.342672	-14.961019	33.890608	-32.342294	-24.422754	127.549024	86.381710	0.588008	0.107097	7.881162	-24.905698	18.613557	114.574343	38.344792	-3.970424	17.900301
1.783333	1.803413	2.855274	73.756174	0.297912	1.002645	0.384430	-1.441383	2.660725	7.539651	12.887088	0.224922	20.650801	-14.531686	0.000000	-2.661320	-0.950683	-0.641682	11.299026	0.197205	34.012569	-11.964752	0.000000	-0.088839	-0.185949	-1.834423	-0.164984	-0.247312	-1.949075	-0.145954	-0.452117	-1.949075	-0.101535	-0.452117	-1.605120	-0.082496	-0.379187	-1.490469	-0.050763	-0.288035	-1.375818	-0.634571	-2.103494	-10.202513	0.000000	0.000000	20.491415	1.939046	-14.659544	29.848748	-33.082316	-26.153303	128.037241	86.661616	1.189663	1.210659	8.390402	-26.408531	15.540145	114.877685	39.959180	-5.561944	17.846902
1.800000	2.338059	2.982767	74.394559	0.297570	1.002941	0.382874	-1.843410	3.198228	7.069660	12.704631	0.221738	20.851949	-14.460477	0.000000	-2.959274	-1.510285	-0.253573	11.361073	0.198288	34.075794	-11.733619	0.000000	-0.084725	-0.140824	-2.104752	-0.157342	-0.187296	-2.236299	-0.139194	-0.342400	-2.236299	-0.096832	-0.342400	-1.841658	-0.078675	-0.287168	-1.710111	-0.048412	-0.218137	-1.578564	-0.605179	-1.593030	-11.705998	0.000000	0.000000	19.800693	1.550600	-14.298451	26.501743	-34.146280	-27.616930	128.038586	87.119582	1.680255	2.611122	8.874140	-28.195959	12.341544	115.171705	43.280429	-6.967534	17.279683
1.816667	2.902148	3.063401	74.958788	0.297275	1.003090	0.381579	-2.180827	3.787206	6.638382	12.522971	0.218567	21.056238	-14.406191	0.000000	-3.197673	-2.114810	0.076230	11.441330	0.199689	34.136967	-11.589753	0.000000	-0.079030	-0.089865	-2.382168	-0.146766	-0.119521	-2.531053	-0.129838	-0.218499	-2.531053	-0.090323	-0.218499	-2.084397	-0.073387	-0.183254	-1.935511	-0.045158	-0.139202	-1.786626	-0.564503	-1.016575	-13.248902	0.000000	0.000000	19.224408	1.191440	-13.901444	23.953691	-35.535260	-28.712057	127.596362	87.603375	1.989090	4.085631	9.385447	-30.255397	9.118935	115.517582	48.108274	-8.101442	16.297694
